# xmcd
#
# Track frame offsets:
#	150
#	15630
#	28566
#	43326
#	62464
#	75199
#	87895
#	105043
#	118083
#	129442
#	145850
#	158118
#	174902
#	186560
#	196999
#	207209
#	221940
#	238760
#	251623
#	265241
#	275794
#	289313
#	302260
#	312142
#	322731
#
# Disc length: 4426 seconds
#
# Revision: 1
# Processed by: cddbd v1.5.2PL0 Copyright (c) Steve Scherf et al.
# Submitted via: audiograbber 1.83.01
#
DISCID=5a114819
DTITLE=Ñáîðíèê - Los 100 Mayores Exitos De Los 60's CD4
DYEAR=1900
DGENRE=
TTITLE0=Jeanette - PORQUE TE VAS
TTITLE1=Victor Manuel - LA ROMERIA
TTITLE2=Mari Trini - AMORES
TTITLE3=Jimmy Fontana - CHE SARA'
TTITLE4=Karina - LAS FLECHAS DEL AMOR
TTITLE5=Fausto Leali - CUORE MATTO
TTITLE6=Richard Anthony - ABRAZAME
TTITLE7=Frida Boccara - LA CASA DEL SOL NACIENTE
TTITLE8=Nella Colombo - OLVIDEMOS EL MAÑANA
TTITLE9=Rita Pavone - CORAZON
TTITLE10=Dionne Warwick - DON'T MAKE ME OVER
TTITLE11=Elsa Baeza  - EL CRISTO DE PALACAGÜINA
TTITLE12=Jose Guardiola - SOY AMERICANO
TTITLE13=Frankie Avalon - VENUS
TTITLE14=Pat Boone - MONALISA
TTITLE15=Tony Dallara - ROMANTICA
TTITLE16=Adamo - EN BANDOLERA
TTITLE17=Adriano Celentano - SI SPENTA IL SOLE
TTITLE18=Tony Ronald - HELP, GET ME SOME HELP
TTITLE19=Chubby Checker - LET'S TWIST AGAIN
TTITLE20=Trini Lopez - SI TUVIERA UN MARTILLO
TTITLE21=Los 5 Latinos - UN TELEGRAMA
TTITLE22=Los Stop - SALUD DINERO Y AMOR
TTITLE23=Los T.N.T. - ME CONFORMO
TTITLE24=The Finders - MIRA COMO BAILO YO
EXTD=
EXTT0=
EXTT1=
EXTT2=
EXTT3=
EXTT4=
EXTT5=
EXTT6=
EXTT7=
EXTT8=
EXTT9=
EXTT10=
EXTT11=
EXTT12=
EXTT13=
EXTT14=
EXTT15=
EXTT16=
EXTT17=
EXTT18=
EXTT19=
EXTT20=
EXTT21=
EXTT22=
EXTT23=
EXTT24=
PLAYORDER=
